HIERARCHY
ROOT pelvis
{
	OFFSET 0.00 0.00 0.00
	CHANNELS 6 Xposition Yposition Zposition Xrotation Yrotation Zrotation
	JOINT lfemur
	{
		OFFSET 0.00000 3.26371 0.00000
		CHANNELS 3 Xrotation Yrotation Zrotation
		JOINT ltibia
		{
			OFFSET 0.00000 0.00000 -17.39272
			CHANNELS 3 Xrotation Yrotation Zrotation
			JOINT lfoot
			{
				OFFSET 0.00000 0.00000 -17.72520
				CHANNELS 3 Xrotation Yrotation Zrotation
				JOINT ltoes
				{
					OFFSET 4.21806 0.00000 0.00000
					CHANNELS 3 Xrotation Yrotation Zrotation
				}
			}
		}
	}
	JOINT rfemur
	{
		OFFSET 0.00000 -3.26371 0.00000
		CHANNELS 3 Xrotation Yrotation Zrotation
		JOINT rtibia
		{
			OFFSET 0.00000 0.00000 -17.39272
			CHANNELS 3 Xrotation Yrotation Zrotation
			JOINT rfoot
			{
				OFFSET 0.00000 0.00000 -17.72520
				CHANNELS 3 Xrotation Yrotation Zrotation
				JOINT rtoes
				{
					OFFSET 4.21806 0.00000 0.00000
					CHANNELS 3 Xrotation Yrotation Zrotation
				}
			}
		}
	}
	JOINT thorax
	{
		OFFSET -1.96850 0.00000 6.16593
		CHANNELS 6 Xposition Yposition Zposition Xrotation Yrotation Zrotation
		JOINT head
		{
			OFFSET 0.00000 0.00000 18.21355
			CHANNELS 6 Xposition Yposition Zposition Xrotation Yrotation Zrotation
		}
		JOINT lclavicle
		{
			OFFSET 0.00000 0.00000 15.13875
			CHANNELS 3 Xrotation Yrotation Zrotation
			JOINT lhumerus
			{
				OFFSET 0.00000 7.18963 -1.52650
				CHANNELS 3 Xrotation Yrotation Zrotation
				JOINT lradius
				{
					OFFSET 0.00000 0.00000 -10.12096
					CHANNELS 3 Xrotation Yrotation Zrotation
					JOINT lhand
					{
						OFFSET 0.00000 0.00000 -10.45726
						CHANNELS 3 Xrotation Yrotation Zrotation
					}
				}
			}
		}
		JOINT rclavicle
		{
			OFFSET 0.00000 0.00000 15.13875
			CHANNELS 3 Xrotation Yrotation Zrotation
			JOINT rhumerus
			{
				OFFSET 0.00000 -7.18963 -1.52650
				CHANNELS 3 Xrotation Yrotation Zrotation
				JOINT rradius
				{
					OFFSET 0.00000 0.00000 -10.12096
					CHANNELS 3 Xrotation Yrotation Zrotation
					JOINT rhand
					{
						OFFSET 0.00000 0.00000 -10.45726
						CHANNELS 3 Xrotation Yrotation Zrotation
					}
				}
			}
		}
	}
}
MOTION
Frames: 9
Frame Time: 0.008333
 97.0801 -6.6757 28.0204 -1.5661 -1.1108 15.6072 16.3320 24.6465 9.4976 -0.0000 26.3635 0.0000 -0.0000 -14.4311 20.3379 0.0000 -37.9189 -0.0000 -33.6531 -44.8471 -37.5870 -0.0000 71.6225 0.0000 0.0000 3.7893 14.3843 0.0000 -28.0494 -0.0000 94.8949 -6.8290 33.8835 2.6897 3.8325 -18.7832 97.8261 -4.4136 52.5124 12.0319 0.8250 -63.8672 -15.7622 0.0000 -10.5265 34.2260 2.9937 -7.6338 0.0000 -30.8111 -38.8326 -9.4417 -2.4479 0.0000 15.9806 -0.0000 -3.8450 -41.1433 -5.3766 12.6049 -0.0000 -29.7662 34.6028 23.7562 -1.0905 0.0000
 97.0792 -6.6664 28.0227 -1.5740 -1.1055 15.5981 16.3188 24.6395 9.5259 -0.0000 26.3743 0.0000 -0.0000 -14.4247 20.3237 0.0000 -37.9135 -0.0000 -33.6293 -44.8608 -37.5315 -0.0000 71.6151 0.0000 -0.0000 3.8015 14.3719 0.0000 -27.9966 -0.0000 94.8999 -6.8130 33.8851 2.6998 3.8184 -18.7984 97.8343 -4.4020 52.5160 12.0637 0.8406 -63.9215 -15.7395 0.0000 -10.5797 34.2685 2.8493 -7.7010 0.0000 -30.9735 -38.6556 -9.3634 -2.2865 -0.0000 15.9815 -0.0000 -3.8442 -41.1515 -5.3368 12.5953 -0.0000 -29.5342 34.6055 23.8413 -1.0260 0.0000
 97.0741 -6.6558 28.0262 -1.5843 -1.0953 15.5864 16.3012 24.6249 9.5560 -0.0000 26.3819 0.0000 -0.0000 -14.4539 20.3283 0.0000 -37.9083 -0.0000 -33.6046 -44.8755 -37.4788 -0.0000 71.5765 0.0000 -0.0000 3.8534 14.3506 0.0000 -28.1148 -0.0000 94.9040 -6.7962 33.8870 2.7175 3.8081 -18.7936 97.8399 -4.3919 52.5198 12.0664 0.8423 -64.0203 -15.7329 0.0000 -10.6228 34.3168 2.6833 -7.7724 0.0000 -31.1556 -38.6965 -9.2172 -2.0581 -0.0000 15.9809 -0.0000 -3.8474 -41.1491 -5.2974 12.5609 -0.0000 -29.2696 34.6309 23.7307 -1.1262 0.0000
 97.0740 -6.6432 28.0305 -1.6384 -1.0200 15.5873 16.2656 24.5647 9.4897 -0.0000 26.3431 0.0000 -0.0000 -14.4618 20.4301 0.0000 -37.8058 -0.0000 -33.5870 -44.9192 -37.4875 -0.0000 71.5160 0.0000 0.0000 3.9619 14.2722 0.0000 -28.2646 -0.0000 94.9148 -6.7731 33.8894 2.7953 3.7024 -18.7784 97.8453 -4.3861 52.5209 12.0265 0.8208 -64.0226 -15.7953 0.0000 -10.5414 34.4023 2.3312 -7.8937 0.0000 -31.0635 -38.4737 -8.9514 -2.4210 -0.0000 15.9672 -0.0000 -4.2147 -41.1063 -5.6915 12.6581 -0.0000 -28.8360 34.8341 23.9286 -1.1160 0.0000
 97.0755 -6.6349 28.0303 -1.6439 -1.0161 15.5810 16.2635 24.5728 9.5298 -0.0000 26.3395 0.0000 -0.0000 -14.4829 20.3776 0.0000 -37.8102 -0.0000 -33.5660 -44.9412 -37.4395 -0.0000 71.5191 0.0000 -0.0000 3.8388 14.2859 0.0000 -28.0504 -0.0000 94.9177 -6.7588 33.8894 2.7996 3.6851 -18.7973 97.8462 -4.3727 52.5243 12.0370 0.8562 -64.0567 -15.7661 0.0000 -10.6022 34.4464 2.2078 -7.9550 0.0000 -31.2312 -38.3802 -9.0237 -2.2785 -0.0000 15.9674 -0.0000 -4.2030 -41.1175 -5.6353 12.6410 0.0000 -28.6700 34.8093 23.8460 -1.1826 0.0000
 97.0703 -6.6231 28.0356 -1.6611 -0.9863 15.5591 16.2493 24.5400 9.6322 -0.0000 26.3426 0.0000 0.0000 -14.4410 20.3558 0.0000 -37.9209 -0.0000 -33.5485 -44.9634 -37.4126 -0.0000 71.4542 0.0000 0.0000 3.9774 14.2572 0.0000 -28.2860 -0.0000 94.9074 -6.7445 33.8941 2.8187 3.6860 -18.7913 97.8491 -4.3559 52.5321 12.0942 0.8555 -64.1125 -15.7715 0.0000 -10.6871 34.5426 2.0260 -7.9815 0.0000 -31.3203 -38.0204 -8.8735 -2.3241 -0.0000 15.9638 -0.0000 -4.0382 -41.1081 -5.4601 12.4311 -0.0000 -28.5430 34.8862 23.5924 -1.2898 0.0000
 97.0712 -6.6159 28.0335 -1.6698 -0.9819 15.5579 16.2500 24.5494 9.6584 -0.0000 26.3344 0.0000 -0.0000 -14.4882 20.3138 0.0000 -37.8241 -0.0000 -33.5346 -44.9810 -37.3734 -0.0000 71.4619 0.0000 -0.0000 3.9355 14.2190 0.0000 -28.2088 -0.0000 94.9114 -6.7309 33.8934 2.8136 3.6723 -18.8098 97.8559 -4.3448 52.5355 12.1173 0.8696 -64.1504 -15.7558 0.0000 -10.7193 34.5883 1.9161 -7.9715 0.0000 -31.5229 -37.9624 -8.9212 -2.1672 0.0000 15.9659 -0.0000 -4.0272 -41.1184 -5.4106 12.3866 -0.0000 -28.4168 34.9254 23.7494 -1.2910 0.0000
 97.0795 -6.6013 28.0319 -1.6880 -0.9649 15.5405 16.2447 24.5713 9.7476 -0.0000 26.3052 0.0000 -0.0000 -14.4889 20.2465 0.0000 -37.8291 -0.0000 -33.5449 -44.9805 -37.3711 -0.0000 71.4688 0.0000 -0.0000 4.1233 14.2397 0.0000 -28.6361 -0.0000 94.9168 -6.7163 33.8975 2.8187 3.6376 -18.8271 97.8583 -4.3307 52.5414 12.1434 0.8994 -64.1967 -15.7738 0.0000 -10.7427 34.6437 1.8017 -7.9317 0.0000 -31.6641 -37.8783 -8.7445 -2.1054 0.0000 15.9685 -0.0000 -3.9523 -41.1139 -5.3243 12.3065 -0.0000 -28.2229 34.9950 23.7231 -1.3322 0.0000
 97.0753 -6.5910 28.0363 -1.6921 -0.9414 15.5422 16.2665 24.6409 9.9617 -0.0000 26.1295 0.0000 -0.0000 -14.4418 20.0229 0.0000 -37.9689 -0.0000 -33.5633 -44.9947 -37.3718 -0.0000 71.4409 0.0000 -0.0000 4.1435 14.2145 0.0000 -28.6007 -0.0000 94.9211 -6.7032 33.8973 2.8165 3.6229 -18.8444 97.8615 -4.3181 52.5433 12.1647 0.8836 -64.1809 -15.7765 0.0000 -10.7809 34.7130 1.6816 -7.8870 0.0000 -31.8081 -37.7115 -8.7478 -2.1594 0.0000 15.9683 -0.0000 -3.9465 -41.1225 -5.2734 12.2521 -0.0000 -28.1637 35.0534 23.8324 -1.2484 0.0000
